# xmcd CD database file
#
# Track frame offsets:
#	150
#	12762
#	29065
#	46085
#	59400
#	71212
#	85162
#	98295
#	115857
#	132768
#	149369
#	161135
#	175076
#	186134
#
# Disc length: 2639 seconds
#
# Revision: 2
# Processed by: cddbd v1.5.1PL2 Copyright (c) Steve Scherf et al.
# Submitted via: CDex 1.51
#
DISCID=b90a4d0e
DTITLE=Valentin Elizalde - Soy Asi
DYEAR=2005
DGENRE=Norteño
TTITLE0=Zenaida ingrata
TTITLE1=Soy asi
TTITLE2=Si me ven
TTITLE3=Cielo
TTITLE4=El errante
TTITLE5=Quiero charlar con la muerte
TTITLE6=La gallina ponedora
TTITLE7=Aunque te enamores
TTITLE8=Nada
TTITLE9=Las adulaciones
TTITLE10=La de enfrente
TTITLE11=De verdad te quiero
TTITLE12=El carretero
TTITLE13=La tambora va a sonar
EXTD=YEAR: 2005
EXTT0=
EXTT1=
EXTT2=
EXTT3=
EXTT4=
EXTT5=
EXTT6=
EXTT7=
EXTT8=
EXTT9=
EXTT10=
EXTT11=
EXTT12=
EXTT13=
PLAYORDER=
